<?xml version="1.0" encoding="UTF-8"?>
<svg id="Layer_1" data-name="Layer 1" xmlns="http://www.w3.org/2000/svg" viewBox="0 0 2000 439">
  <defs>
    <style>
      .cls-1 {
        fill: #010101;
      }

      .cls-2 {
        fill: #231f20;
      }

      .cls-3 {
        stroke-linejoin: round;
        stroke-width: 55.48px;
      }

      .cls-3, .cls-4, .cls-5 {
        fill: none;
        stroke-linecap: square;
      }

      .cls-3, .cls-5 {
        stroke: #fff;
      }

      .cls-4 {
        stroke: #010101;
      }

      .cls-4, .cls-5 {
        stroke-miterlimit: 10;
        stroke-width: 55.48px;
      }
    </style>
  </defs>
  <rect class="cls-2" y="19.07" width="2000" height="419.93"/>
  <path class="cls-3" d="m54.03,73.22v214.99c0,45.96,37.26,83.22,83.22,83.22h638.45"/>
  <polygon class="cls-1" points="84.47 12.43 145.24 0 125.62 58.85 106 117.71 64.84 71.29 23.69 24.87 84.47 12.43"/>
  <g>
    <polyline class="cls-5" points="421.77 293.68 490.97 241.7 490.97 181.83 490.97 181.8 392.36 181.8"/>
    <polyline class="cls-5" points="461.55 259.55 392.36 317.07 392.36 371.39 392.36 371.43 490.97 371.43"/>
  </g>
  <path class="cls-5" d="m297.65,254l-69.2,57.53v59.91h98.61v-102.21c0-45.96-37.26-83.22-83.22-83.22h-12.54"/>
  <g>
    <polyline class="cls-5" points="582.82 293.68 652.02 241.7 652.02 181.83 652.02 181.8 553.41 181.8"/>
    <polyline class="cls-5" points="622.61 259.55 553.41 317.07 553.41 371.39 553.41 371.43 690.89 371.43"/>
  </g>
  <path class="cls-4" d="m706.36,295.44c0,45.96,37.26,83.22,83.22,83.22h15.39"/>
  <g>
    <path class="cls-3" d="m714.46,120.38v167.83c0,45.96,37.26,83.22,83.22,83.22h356.87"/>
    <line class="cls-3" x1="714.46" y1="186.03" x2="813.07" y2="186.03"/>
  </g>
  <polygon class="cls-1" points="745.34 51.31 806.12 38.88 786.5 97.73 766.88 156.58 725.72 110.16 684.56 63.74 745.34 51.31"/>
  <path class="cls-5" d="m904.93,303.43l69.2-57.53v-59.91h-98.61v102.21c0,45.96,37.26,83.22,83.22,83.22h51.42"/>
  <path class="cls-5" d="m1135.18,186.03v-.03h-98.61v102.21c0,45.96,37.26,83.22,83.22,83.22h15.39"/>
  <path class="cls-5" d="m1625.25,186v102.21c0,45.96,37.26,83.22,83.22,83.22h15.39"/>
  <polyline class="cls-3" points="1197.63 120.29 1197.63 185.91 1197.63 371.43"/>
  <path class="cls-5" d="m1332.27,371.34v-102.21c0-45.96-37.26-83.22-83.22-83.22h-23.65"/>
  <polygon class="cls-1" points="1222.95 51.31 1283.73 38.88 1264.11 97.73 1244.49 156.58 1203.33 110.16 1162.17 63.74 1222.95 51.31"/>
  <polyline class="cls-3" points="1819.63 120.29 1819.63 185.91 1819.63 371.43"/>
  <path class="cls-5" d="m1847.37,185.9h23.66c45.98,0,83.25,37.26,83.25,83.25v19.05-19.05,19.05c0,45.98-37.26,83.25-83.25,83.25h-12.55"/>
  <polygon class="cls-1" points="1844.95 51.31 1905.73 38.88 1886.11 97.73 1866.49 156.58 1825.33 110.16 1784.17 63.74 1844.95 51.31"/>
  <polyline class="cls-3" points="1430.88 120.29 1430.88 185.91 1430.88 371.43"/>
  <path class="cls-5" d="m1532.28,185.91h-73.63"/>
  <polygon class="cls-1" points="1456.2 51.31 1516.98 38.88 1497.36 97.73 1477.74 156.58 1436.58 110.16 1395.42 63.74 1456.2 51.31"/>
  <polyline class="cls-3" points="1564.16 120.29 1564.16 185.91 1564.16 371.43"/>
  <polygon class="cls-1" points="1589.49 51.31 1650.27 38.88 1630.65 97.73 1611.02 156.58 1569.87 110.16 1528.71 63.74 1589.49 51.31"/>
  <line class="cls-3" x1="1758.54" y1="185.91" x2="1758.54" y2="371.43"/>
</svg>