<svg width="1370" height="356" viewBox="0 0 1370 356" fill="none" xmlns="http://www.w3.org/2000/svg">
<g clip-path="url(#clip0_154_1465)">
<path d="M669.32 290.4H567.17V277.92L572.55 273.45L572.59 273.41L657.74 209.47V116.25H516.22V167.2H606.79V184.01L540.93 233.47L533.32 239.79L516.22 254.01V290.4H398.86V277.92L404.24 273.45L489.43 209.47V116.25H347.91V167.2H438.46V184.01L372.62 233.46L365.01 239.79L347.91 254.01V290.4H318.5V222.01C318.5 165.82 272.78 120.1 216.59 120.1H179.6V171.06H216.59C230.65 171.06 243.4 176.78 252.63 186.03L176.98 248.91V290.4H108.49C80.4001 290.4 57.5401 267.54 57.5401 239.45V46.25L52.2001 40.23L31.1801 16.52H6.59009V239.45C6.59009 295.64 52.3001 341.35 108.49 341.35H693.44V327.25C682.92 316.96 674.62 304.42 669.32 290.4ZM267.54 290.4H227.93V272.82L267.54 239.89V290.4Z" fill="white"/>
<path d="M372.62 233.46L365.01 239.79L364.72 239.39L372.62 233.46Z" fill="white"/>
<path d="M540.93 233.47L533.32 239.79L533.03 239.39L540.93 233.47Z" fill="white"/>
<path d="M1162.67 171.05V120.1H1021.15V239.45C1021.15 258 1026.14 275.41 1034.83 290.4H954.74C940.68 290.4 927.93 284.67 918.71 275.43L994.36 212.54V120.1H852.84V239.45C852.84 258 857.83 275.41 866.52 290.4H786.44C758.34 290.4 735.49 267.54 735.49 239.45V171.09H826.05V120.14H735.49V93.0001L720.35 75.9301L706.08 59.8401H684.53V239.45C684.53 295.64 730.25 341.35 786.43 341.35H1160.05V290.4H1123.05C1094.95 290.4 1072.1 267.54 1072.1 239.45V171.06H1111.71V171.09L1162.66 171.06L1162.67 171.05ZM903.79 171.05H943.4V188.64L903.79 221.57V171.05Z" fill="white"/>
<path d="M1162.68 290.4H1160.06V341.35H1162.68V290.4Z" fill="white"/>
<path d="M1364.07 221.93V341.28H1313.12V221.93C1313.12 193.83 1290.27 170.98 1262.17 170.98H1240.42V341.35H1189.47V59.75H1205.85L1220.19 75.92L1240.43 98.75V120.01H1262.18C1318.37 120.01 1364.08 165.73 1364.08 221.92L1364.07 221.93Z" fill="white"/>
</g>
<defs>
<clipPath id="clip0_154_1465">
<rect width="1370" height="356" fill="white"/>
</clipPath>
</defs>
</svg>
