<?xml version="1.0" encoding="UTF-8"?>
<svg id="Layer_1" data-name="Layer 1" xmlns="http://www.w3.org/2000/svg" viewBox="0 0 2248.36 441.27">
  <defs>
    <style>
      .cls-1 {
        fill: #fff;
      }
    </style>
  </defs>
  <path class="cls-1" d="M711.2,342.62h-108.52v-13.6l5.65-4.7.09-.08,92.87-69.74v-101.51h-154.09v55.48h98.61v14.65l-98.61,79.88v39.62h-105.57v-13.6l5.65-4.7.09-.08,92.87-69.74v-101.51h-154.09v55.48h98.61v14.65l-98.61,79.88v39.62h-9.81v-74.47c0-61.18-49.78-110.96-110.96-110.96h-40.29v55.48h40.29c15.31,0,29.19,6.23,39.24,16.3l-82.37,68.47v45.18h-63.47c-30.59,0-55.48-24.89-55.48-55.48V89.31l-16.93-19.09-22.88-25.81h-15.67v242.73c0,61.18,49.78,110.96,110.96,110.96h612.92c-26.53-10.1-48.21-30.11-60.5-55.48ZM320.86,342.62h-43.13v-19.15l43.13-35.86v55.01Z"/>
  <path class="cls-1" d="M1270.58,157.11h-23.68v-23.15l.09-5.99-20.1-22.68-12.24-13.8h-23.23v251.13h-50.1c-30.59,0-55.48-24.89-55.48-55.48v-74.47h43.13v.03l55.48-.03v-55.48h-154.09v129.95c0,20.2,5.42,39.15,14.89,55.48h-64.98c-15.31,0-29.19-6.23-39.24-16.3l82.37-68.47v-100.66h-154.09v129.95c0,20.2,5.43,39.15,14.9,55.48h-64.99c-30.6,0-55.48-24.89-55.48-55.48v-74.44h98.6v-55.48h-98.6v-29.52l-16.49-18.6-15.54-17.53h-23.45v195.57c0,61.18,49.77,110.96,110.96,110.96h427.68v-185.51h23.68c30.59,0,55.48,24.89,55.48,55.48v129.95h55.48v-129.95c0-61.19-49.78-110.96-110.96-110.96ZM924.79,212.67h43.13v19.15l-43.13,35.86v-55.01Z"/>
  <path class="cls-1" d="M2066.84,398.3h-55.48v-240.99h77.81c61.18,0,110.96,49.78,110.96,110.96v129.95h-55.48v-129.95c0-30.59-24.89-55.48-55.48-55.48h-22.33v185.51Z"/>
  <path class="cls-1" d="M2004.43,398.3h-77.81c-61.18,0-110.96-49.78-110.96-110.96v-129.95h55.48v129.95c0,30.59,24.89,55.48,55.48,55.48h22.33v-185.51h55.48v240.99Z"/>
  <path class="cls-1" d="M1619.55,157.13v146.81c0,52.19,42.46,94.65,94.64,94.65s94.65-42.46,94.65-94.65v-146.81h-189.29ZM1752.91,301.94h-.07v2c0,21.31-17.34,38.65-38.65,38.65s-38.64-17.34-38.64-38.65v-58.65h.14v-8.58c0-21.33,17.28-38.61,38.61-38.61,10.66,0,20.31,4.32,27.3,11.31,6.99,6.98,11.31,16.64,11.31,27.3v65.23Z"/>
  <polygon class="cls-1" points="1612.62 127.43 1612.62 398.12 1564.94 398.12 1561.79 392.71 1557.14 384.73 1557.14 384.46 1479.33 243.45 1479.33 398.08 1423.85 398.08 1423.85 91.47 1447.58 91.47 1459.83 105.29 1479.45 127.42 1479.45 127.78 1557.14 270.02 1557.14 91.47 1580.74 91.47 1592.99 105.29 1612.62 127.43"/>
</svg>