<?xml version="1.0" encoding="UTF-8"?>
<svg id="Layer_3" data-name="Layer 3" xmlns="http://www.w3.org/2000/svg" viewBox="0 0 1370 355.89">
  <defs>
    <style>
      .cls-1 {
        fill: currentColor;
      }
    </style>
  </defs>
  <path class="cls-1" d="m669.32,290.4h-102.15v-12.48l5.38-4.47.04-.04,85.15-63.94v-93.22h-141.52v50.95h90.57v16.81l-65.86,49.46-7.61,6.32-17.1,14.22v36.39h-117.36v-12.48l5.38-4.47,85.19-63.98v-93.22h-141.52v50.95h90.55v16.81l-65.84,49.45-7.61,6.33-17.1,14.22v36.39h-29.41v-68.39c0-56.19-45.72-101.91-101.91-101.91h-36.99v50.96h36.99c14.06,0,26.81,5.72,36.04,14.97l-75.65,62.88v41.49h-68.49c-28.09,0-50.95-22.86-50.95-50.95V46.25l-5.34-6.02-21.02-23.71H6.59v222.93c0,56.19,45.71,101.9,101.9,101.9h584.95v-14.1c-10.52-10.29-18.82-22.83-24.12-36.85Zm-401.78,0h-39.61v-17.58l39.61-32.93v50.51Z"/>
  <polygon class="cls-1" points="372.62 233.46 365.01 239.79 364.72 239.39 372.62 233.46"/>
  <polygon class="cls-1" points="540.93 233.47 533.32 239.79 533.03 239.39 540.93 233.47"/>
  <path class="cls-1" d="m1162.67,171.05v-50.95h-141.52v119.35c0,18.55,4.99,35.96,13.68,50.95h-80.09c-14.06,0-26.81-5.73-36.03-14.97l75.65-62.89v-92.44h-141.52v119.35c0,18.55,4.99,35.96,13.68,50.95h-80.08c-28.1,0-50.95-22.86-50.95-50.95v-68.36h90.56v-50.95h-90.56v-27.14l-15.14-17.07-14.27-16.09h-21.55v179.61c0,56.19,45.72,101.9,101.9,101.9h373.62v-50.95h-37c-28.1,0-50.95-22.86-50.95-50.95v-68.39h39.61v.03l50.95-.03Zm-258.88,0h39.61v17.59l-39.61,32.93v-50.52Z"/>
  <rect class="cls-1" x="1160.06" y="290.4" width="2.62" height="50.95"/>
  <path class="cls-1" d="m1364.07,221.93v119.35h-50.95v-119.35c0-28.1-22.85-50.95-50.95-50.95h-21.75v170.37h-50.95V59.75h16.38l14.34,16.17,20.24,22.83v21.26h21.75c56.19,0,101.9,45.72,101.9,101.91Z"/>
</svg>