<svg width="2249" height="442" viewBox="0 0 2249 442" fill="none" xmlns="http://www.w3.org/2000/svg">
<path d="M711.2 342.62H602.68V329.02L608.33 324.32L608.42 324.24L701.29 254.5V152.99H547.2V208.47H645.81V223.12L547.2 303V342.62H441.63V329.02L447.28 324.32L447.37 324.24L540.24 254.5V152.99H386.15V208.47H484.76V223.12L386.15 303V342.62H376.34V268.15C376.34 206.97 326.56 157.19 265.38 157.19H225.09V212.67H265.38C280.69 212.67 294.57 218.9 304.62 228.97L222.25 297.44V342.62H158.78C128.19 342.62 103.3 317.73 103.3 287.14V89.3099L86.3701 70.2199L63.4901 44.4099H47.8201V287.14C47.8201 348.32 97.6001 398.1 158.78 398.1H771.7C745.17 388 723.49 367.99 711.2 342.62ZM320.86 342.62H277.73V323.47L320.86 287.61V342.62Z" fill="black"/>
<path d="M1270.58 157.11H1246.9V133.96L1246.99 127.97L1226.89 105.29L1214.65 91.49H1191.42V342.62H1141.32C1110.73 342.62 1085.84 317.73 1085.84 287.14V212.67H1128.97V212.7L1184.45 212.67V157.19H1030.36V287.14C1030.36 307.34 1035.78 326.29 1045.25 342.62H980.27C964.96 342.62 951.08 336.39 941.03 326.32L1023.4 257.85V157.19H869.31V287.14C869.31 307.34 874.74 326.29 884.21 342.62H819.22C788.62 342.62 763.74 317.73 763.74 287.14V212.7H862.34V157.22H763.74V127.7L747.25 109.1L731.71 91.57H708.26V287.14C708.26 348.32 758.03 398.1 819.22 398.1H1246.9V212.59H1270.58C1301.17 212.59 1326.06 237.48 1326.06 268.07V398.02H1381.54V268.07C1381.54 206.88 1331.76 157.11 1270.58 157.11ZM924.79 212.67H967.92V231.82L924.79 267.68V212.67Z" fill="black"/>
<path d="M2066.84 398.3H2011.36V157.31H2089.17C2150.35 157.31 2200.13 207.09 2200.13 268.27V398.22H2144.65V268.27C2144.65 237.68 2119.76 212.79 2089.17 212.79H2066.84V398.3Z" fill="black"/>
<path d="M2004.43 398.3H1926.62C1865.44 398.3 1815.66 348.52 1815.66 287.34V157.39H1871.14V287.34C1871.14 317.93 1896.03 342.82 1926.62 342.82H1948.95V157.31H2004.43V398.3Z" fill="black"/>
<path d="M1619.55 157.13V303.94C1619.55 356.13 1662.01 398.59 1714.19 398.59C1766.37 398.59 1808.84 356.13 1808.84 303.94V157.13H1619.55ZM1752.91 301.94H1752.84V303.94C1752.84 325.25 1735.5 342.59 1714.19 342.59C1692.88 342.59 1675.55 325.25 1675.55 303.94V245.29H1675.69V236.71C1675.69 215.38 1692.97 198.1 1714.3 198.1C1724.96 198.1 1734.61 202.42 1741.6 209.41C1748.59 216.39 1752.91 226.05 1752.91 236.71V301.94Z" fill="black"/>
<path d="M1612.62 127.43V398.12H1564.94L1561.79 392.71L1557.14 384.73V384.46L1479.33 243.45V398.08H1423.85V91.47H1447.58L1459.83 105.29L1479.45 127.42V127.78L1557.14 270.02V91.47H1580.74L1592.99 105.29L1612.62 127.43Z" fill="black"/>
</svg>
