<?xml version="1.0" encoding="UTF-8"?>
<svg id="Layer_2" data-name="Layer 2" xmlns="http://www.w3.org/2000/svg" viewBox="0 0 2000 439">
  <defs>
    <style>
      .cls-1 {
        fill: none;
        stroke: #fff;
        stroke-linecap: square;
        stroke-miterlimit: 10;
        stroke-width: 47.61px;
      }

      .cls-2 {
        fill: #010101;
      }
    </style>
  </defs>
  <rect class="cls-2" width="2000" height="439"/>
  <path class="cls-1" d="m53.87,104.58v204.76c0,43.78,35.49,79.26,79.26,79.26h26.24"/>
  <polygon points="82.85 46.69 140.74 34.85 122.05 90.9 103.36 146.96 64.16 102.74 24.97 58.53 82.85 46.69"/>
  <g>
    <polyline class="cls-1" points="425.27 314.56 491.18 265.06 491.18 208.03 491.18 208 397.26 208"/>
    <polyline class="cls-1" points="463.17 282.05 397.26 336.84 397.26 388.58 397.26 388.61 491.18 388.61"/>
  </g>
  <path class="cls-1" d="m296.48,276.76l-65.91,54.79v57.06h93.92v-97.35c0-43.78-35.49-79.26-79.26-79.26h-11.95"/>
  <g>
    <polyline class="cls-1" points="589.24 314.56 655.15 265.06 655.15 208.03 655.15 208 561.23 208"/>
    <polyline class="cls-1" points="627.14 282.05 561.23 336.84 561.23 388.58 561.23 388.61 692.18 388.61"/>
  </g>
  <polygon points="718.15 315.6 777.02 310.52 751.99 364.04 726.95 417.57 693.12 369.13 659.28 320.69 718.15 315.6"/>
  <g>
    <path class="cls-1" d="m725.2,149.5v159.85c0,43.78,35.49,79.26,79.26,79.26h48.97"/>
    <line class="cls-1" x1="725.2" y1="212.03" x2="819.12" y2="212.03"/>
  </g>
  <polygon points="749.32 83.72 807.21 71.88 788.52 127.93 769.83 183.98 730.64 139.77 691.44 95.56 749.32 83.72"/>
  <polygon points="882.13 315.6 940.99 310.52 915.96 364.04 890.93 417.57 857.09 369.13 823.26 320.69 882.13 315.6"/>
  <path class="cls-1" d="m917.19,323.84l65.91-54.79v-57.06h-93.92v97.35c0,43.78,35.49,79.26,79.26,79.26h48.97"/>
  <polygon points="1046.1 315.6 1104.97 310.52 1079.93 364.04 1054.9 417.57 1021.06 369.13 987.23 320.69 1046.1 315.6"/>
  <path class="cls-1" d="m1147.07,212.03v-.03h-93.92v97.35c0,43.78,35.49,79.26,79.26,79.26h14.66"/>
  <polyline class="cls-1" points="1217.12 149.42 1217.12 211.92 1217.12 388.61"/>
  <path class="cls-1" d="m1345.36,388.53v-97.35c0-43.78-35.49-79.26-79.26-79.26h-22.53"/>
  <polygon points="1241.24 83.72 1299.13 71.88 1280.44 127.93 1261.75 183.98 1222.55 139.77 1183.35 95.56 1241.24 83.72"/>
  <polygon points="1487.9 65.45 1545.79 53.61 1527.1 109.66 1508.41 165.71 1469.22 121.5 1430.02 77.29 1487.9 65.45"/>
  <polyline class="cls-1" points="1458.5 99.42 1458.5 156.62 1458.5 386.13"/>
  <path class="cls-1" d="m1560.36,204.23h-70.13"/>
  <polygon points="1482.62 33.71 1540.5 21.87 1521.81 77.92 1503.12 133.98 1463.93 89.76 1424.73 45.55 1482.62 33.71"/>
  <polyline class="cls-1" points="1580.15 99.42 1580.15 156.62 1580.15 386.13"/>
  <polygon points="1604.27 33.71 1662.16 21.87 1643.47 77.92 1624.78 133.98 1585.58 89.76 1546.38 45.55 1604.27 33.71"/>
  <path class="cls-1" d="m1648.92,209.6v97.35c0,43.78,35.49,79.26,79.26,79.26h14.66"/>
  <line class="cls-1" x1="1770.57" y1="209.52" x2="1770.57" y2="386.21"/>
  <polygon points="1667.75 139.5 1725.63 127.66 1706.95 183.71 1688.26 239.77 1649.06 195.55 1609.86 151.34 1667.75 139.5"/>
  <polygon points="1789.4 139.5 1847.29 127.66 1828.6 183.71 1809.91 239.77 1770.71 195.55 1731.51 151.34 1789.4 139.5"/>
  <polyline class="cls-1" points="1839.34 147.02 1839.34 209.52 1839.34 386.21"/>
  <path class="cls-1" d="m1860.47,209.51h22.53c43.8,0,79.29,35.49,79.29,79.29v18.14-18.14,18.14c0,43.8-35.49,79.29-79.29,79.29h-11.95"/>
  <polygon points="1868.74 81.32 1926.63 69.47 1907.94 125.53 1889.25 181.58 1850.06 137.37 1810.86 93.16 1868.74 81.32"/>
</svg>