<?xml version="1.0" encoding="UTF-8"?>
<svg xmlns="http://www.w3.org/2000/svg" viewBox="0 0 2000 439">
  <defs>
    <style>
      .cls-1 {
        fill: #010101;
      }

      .cls-2 {
        stroke-linejoin: round;
        stroke-width: 52.66px;
      }

      .cls-2, .cls-3, .cls-4 {
        fill: none;
        stroke-linecap: square;
      }

      .cls-2, .cls-4 {
        stroke: #fff;
      }

      .cls-3 {
        stroke: #000;
      }

      .cls-3, .cls-4 {
        stroke-miterlimit: 10;
        stroke-width: 52.66px;
      }
    </style>
  </defs>
  <g id="Layer_3" data-name="Layer 3">
    <rect class="cls-1" width="2000" height="439"/>
  </g>
  <g id="Layer_2" data-name="Layer 2">
    <polygon points="1475.63 71.98 1533.32 60.18 1514.69 116.04 1496.07 171.9 1457 127.84 1417.94 83.78 1475.63 71.98"/>
    <polyline class="cls-4" points="1446.32 105.83 1446.32 162.84 1446.32 391.55"/>
    <path class="cls-4" d="m1547.83,210.28h-69.89"/>
    <polygon points="1470.36 40.35 1528.05 28.55 1509.42 84.41 1490.8 140.27 1451.73 96.21 1412.67 52.15 1470.36 40.35"/>
    <polyline class="cls-4" points="1567.56 105.83 1567.56 162.84 1567.56 391.55"/>
    <polygon points="1591.59 40.35 1649.28 28.55 1630.66 84.41 1612.03 140.27 1572.97 96.21 1533.9 52.15 1591.59 40.35"/>
    <path class="cls-4" d="m1636.08,215.63v97.01c0,43.62,35.36,78.99,78.99,78.99h14.61"/>
    <line class="cls-4" x1="1757.32" y1="215.55" x2="1757.32" y2="391.63"/>
    <polygon points="1654.85 145.78 1712.53 133.98 1693.91 189.83 1675.28 245.69 1636.22 201.64 1597.16 157.58 1654.85 145.78"/>
    <polygon points="1776.08 145.78 1833.77 133.98 1815.14 189.83 1796.52 245.69 1757.46 201.64 1718.39 157.58 1776.08 145.78"/>
    <polyline class="cls-4" points="1825.84 153.27 1825.84 215.55 1825.84 391.63"/>
    <path class="cls-4" d="m1846.9,215.54h22.45c43.64,0,79.01,35.37,79.01,79.01v18.08-18.08,18.08c0,43.64-35.37,79.01-79.01,79.01h-11.91"/>
    <polygon points="1855.15 87.79 1912.84 75.99 1894.21 131.85 1875.59 187.71 1836.52 143.65 1797.46 99.59 1855.15 87.79"/>
    <path class="cls-2" d="m50.45,109.29v204.05c0,43.62,35.36,78.99,78.99,78.99h605.97"/>
    <polygon points="89.88 51.6 147.57 39.8 128.94 95.66 110.32 151.52 71.26 107.46 32.19 63.4 89.88 51.6"/>
    <polyline class="cls-4" points="410.03 318.54 475.7 269.21 475.7 212.38 475.7 212.35 382.11 212.35"/>
    <polyline class="cls-4" points="447.79 286.15 382.11 340.75 382.11 392.3 382.11 392.33 475.7 392.33"/>
    <path class="cls-4" d="m281.68,280.88l-65.68,54.6v56.86h93.59v-97.01c0-43.62-35.36-78.99-78.99-78.99h-11.91"/>
    <polyline class="cls-4" points="573.43 318.54 639.11 269.21 639.11 212.38 639.11 212.35 545.51 212.35"/>
    <polyline class="cls-4" points="611.19 286.15 545.51 340.75 545.51 392.3 545.51 392.33 676.01 392.33"/>
    <path class="cls-3" d="m690.68,320.22c0,43.62,35.36,78.99,78.99,78.99h14.61"/>
    <g>
      <path class="cls-2" d="m708.92,154.05v159.29c0,43.62,35.36,78.99,78.99,78.99h359.8"/>
      <line class="cls-2" x1="708.92" y1="216.37" x2="802.51" y2="216.37"/>
    </g>
    <polygon points="738.23 88.5 795.91 76.7 777.29 132.56 758.66 188.42 719.6 144.36 680.54 100.3 738.23 88.5"/>
    <path class="cls-4" d="m900.24,327.79l65.68-54.6v-56.86h-93.59v97.01c0,43.62,35.36,78.99,78.99,78.99h48.8"/>
    <path class="cls-4" d="m1129.32,216.37v-.03h-93.59v97.01c0,43.62,35.36,78.99,78.99,78.99h14.61"/>
    <polyline class="cls-2" points="1199.13 153.97 1199.13 216.26 1199.13 392.33"/>
    <path class="cls-4" d="m1326.92,392.25v-97.01c0-43.62-35.36-78.99-78.99-78.99h-22.45"/>
    <polygon points="1223.17 88.5 1280.86 76.7 1262.23 132.56 1243.61 188.42 1204.54 144.36 1165.48 100.3 1223.17 88.5"/>
  </g>
</svg>